<svg width="26" height="23" viewBox="0 0 26 23" fill="none" xmlns="http://www.w3.org/2000/svg">
<path d="M4.02571 10.5C4.02406 9.31403 4.25715 8.13944 4.71157 7.04395C5.16598 5.94847 5.83272 4.95376 6.67336 4.11716C7.51399 3.28056 8.5119 2.61861 9.60956 2.16948C10.7072 1.72034 11.8829 1.4929 13.0689 1.50026C18.0176 1.53705 21.9759 5.65043 21.9759 10.613V11.5C21.9759 15.977 22.9126 18.5749 23.7376 19.9948C23.8264 20.1465 23.8737 20.319 23.8747 20.4948C23.8756 20.6706 23.8302 20.8436 23.7429 20.9963C23.6557 21.1489 23.5297 21.2759 23.3778 21.3643C23.2258 21.4528 23.0532 21.4996 22.8774 21.5H3.12329C2.94744 21.4996 2.77482 21.4527 2.62284 21.3643C2.47087 21.2758 2.34491 21.1488 2.25767 20.9961C2.17044 20.8435 2.12502 20.6705 2.12599 20.4946C2.12696 20.3188 2.17429 20.1463 2.26321 19.9946C3.08862 18.5746 4.02571 15.9767 4.02571 11.5L4.02571 10.5Z" stroke="#222222" stroke-width="3" stroke-linecap="round" stroke-linejoin="round"/>
</svg>
