<svg width="18" height="20" viewBox="0 0 18 20" fill="none" xmlns="http://www.w3.org/2000/svg">
<path d="M6.5 0C5.9 0 5.5 0.4 5.5 1V19C5.5 19.6 5.9 20 6.5 20C7.1 20 7.5 19.6 7.5 19V1C7.5 0.4 7.1 0 6.5 0ZM1.5 10C0.9 10 0.5 10.4 0.5 11V19C0.5 19.6 0.9 20 1.5 20C2.1 20 2.5 19.6 2.5 19V11C2.5 10.4 2.1 10 1.5 10ZM11.5 6C10.9 6 10.5 6.4 10.5 7V19C10.5 19.6 10.9 20 11.5 20C12.1 20 12.5 19.6 12.5 19V7C12.5 6.4 12.1 6 11.5 6ZM16.5 14C15.9 14 15.5 14.4 15.5 15V19C15.5 19.6 15.9 20 16.5 20C17.1 20 17.5 19.6 17.5 19V15C17.5 14.4 17.1 14 16.5 14Z" fill="#02B8F2"/>
</svg>
