<svg width="26" height="22" viewBox="0 0 26 22" fill="none" xmlns="http://www.w3.org/2000/svg">
<path d="M20.0909 19.2727H5.90909C4.96878 19.2727 4.06698 18.8992 3.40208 18.2343C2.73717 17.5694 2.36364 16.6676 2.36364 15.7273V6.27273C2.36364 5.95929 2.23912 5.65869 2.01749 5.43706C1.79586 5.21542 1.49526 5.09091 1.18182 5.09091C0.868381 5.09091 0.56778 5.21542 0.346146 5.43706C0.124513 5.65869 0 5.95929 0 6.27273V15.7273C0 17.2945 0.622563 18.7975 1.73073 19.9056C2.27944 20.4543 2.93086 20.8896 3.64778 21.1866C4.3647 21.4835 5.1331 21.6364 5.90909 21.6364H20.0909C20.4043 21.6364 20.7049 21.5119 20.9266 21.2902C21.1482 21.0686 21.2727 20.768 21.2727 20.4545C21.2727 20.1411 21.1482 19.8405 20.9266 19.6189C20.7049 19.3972 20.4043 19.2727 20.0909 19.2727ZM15.3636 9.81818H10.6364C10.3229 9.81818 10.0223 9.94269 9.80069 10.1643C9.57906 10.386 9.45455 10.6866 9.45455 11C9.45455 11.3134 9.57906 11.614 9.80069 11.8357C10.0223 12.0573 10.3229 12.1818 10.6364 12.1818H15.3636C15.6771 12.1818 15.9777 12.0573 16.1993 11.8357C16.4209 11.614 16.5455 11.3134 16.5455 11C16.5455 10.6866 16.4209 10.386 16.1993 10.1643C15.9777 9.94269 15.6771 9.81818 15.3636 9.81818ZM26 8.56545C25.9877 8.45689 25.9639 8.34993 25.9291 8.24636V8.14C25.8723 8.01849 25.7965 7.90679 25.7045 7.80909L18.6136 0.718181C18.5159 0.626255 18.4042 0.550459 18.2827 0.493636H18.1764C18.0563 0.424785 17.9237 0.380588 17.7864 0.363636H8.27273C7.33242 0.363636 6.43061 0.737174 5.76571 1.40208C5.10081 2.06698 4.72727 2.96878 4.72727 3.90909V13.3636C4.72727 14.304 5.10081 15.2058 5.76571 15.8707C6.43061 16.5356 7.33242 16.9091 8.27273 16.9091H22.4545C23.3949 16.9091 24.2967 16.5356 24.9616 15.8707C25.6265 15.2058 26 14.304 26 13.3636V8.63636C26 8.63636 26 8.63636 26 8.56545ZM18.9091 4.39364L21.97 7.45455H20.0909C19.7775 7.45455 19.4769 7.33003 19.2552 7.1084C19.0336 6.88677 18.9091 6.58616 18.9091 6.27273V4.39364ZM23.6364 13.3636C23.6364 13.6771 23.5119 13.9777 23.2902 14.1993C23.0686 14.4209 22.768 14.5455 22.4545 14.5455H8.27273C7.95929 14.5455 7.65869 14.4209 7.43706 14.1993C7.21542 13.9777 7.09091 13.6771 7.09091 13.3636V3.90909C7.09091 3.59565 7.21542 3.29505 7.43706 3.07342C7.65869 2.85179 7.95929 2.72727 8.27273 2.72727H16.5455V6.27273C16.5455 7.21304 16.919 8.11484 17.5839 8.77974C18.2488 9.44464 19.1506 9.81818 20.0909 9.81818H23.6364V13.3636ZM10.6364 7.45455H13C13.3134 7.45455 13.614 7.33003 13.8357 7.1084C14.0573 6.88677 14.1818 6.58616 14.1818 6.27273C14.1818 5.95929 14.0573 5.65869 13.8357 5.43706C13.614 5.21542 13.3134 5.09091 13 5.09091H10.6364C10.3229 5.09091 10.0223 5.21542 9.80069 5.43706C9.57906 5.65869 9.45455 5.95929 9.45455 6.27273C9.45455 6.58616 9.57906 6.88677 9.80069 7.1084C10.0223 7.33003 10.3229 7.45455 10.6364 7.45455Z" fill="#696969"/>
</svg>
