<svg width="26" height="26" viewBox="0 0 26 26" fill="none" xmlns="http://www.w3.org/2000/svg">
<path d="M23.4533 13.8579C23.2449 13.6207 23.13 13.3157 23.13 13C23.13 12.6843 23.2449 12.3793 23.4533 12.1421L25.1171 10.2704C25.3004 10.0659 25.4143 9.80855 25.4423 9.53533C25.4703 9.26211 25.4111 8.98704 25.2731 8.74958L22.6734 4.25219C22.5368 4.015 22.3288 3.82699 22.0791 3.71495C21.8293 3.60292 21.5506 3.57259 21.2826 3.62827L18.8389 4.12221C18.528 4.18646 18.2043 4.13467 17.9289 3.97663C17.6535 3.81858 17.4455 3.56521 17.3441 3.26432L16.5512 0.885648C16.464 0.627475 16.2979 0.403238 16.0763 0.244629C15.8547 0.0860209 15.5889 0.00106429 15.3164 0.00176771H10.1171C9.83366 -0.0130269 9.55316 0.0653633 9.31845 0.224966C9.08374 0.384568 8.90773 0.616609 8.81729 0.885648L8.08939 3.26432C7.988 3.56521 7.77999 3.81858 7.50461 3.97663C7.22923 4.13467 6.90553 4.18646 6.59459 4.12221L4.08593 3.62827C3.83188 3.59237 3.57289 3.63246 3.34158 3.74349C3.11028 3.85452 2.917 4.03152 2.78611 4.25219L0.186461 8.74958C0.0449882 8.98439 -0.0186225 9.25792 0.00472297 9.53106C0.0280684 9.8042 0.137175 10.063 0.316443 10.2704L1.96722 12.1421C2.17561 12.3793 2.29053 12.6843 2.29053 13C2.29053 13.3157 2.17561 13.6207 1.96722 13.8579L0.316443 15.7296C0.137175 15.937 0.0280684 16.1958 0.00472297 16.4689C-0.0186225 16.7421 0.0449882 17.0156 0.186461 17.2504L2.78611 21.7478C2.92272 21.985 3.13071 22.173 3.38045 22.285C3.63019 22.3971 3.90893 22.4274 4.17692 22.3717L6.62059 21.8778C6.93153 21.8135 7.25523 21.8653 7.53061 22.0234C7.80599 22.1814 8.014 22.4348 8.11538 22.7357L8.90827 25.1144C8.99872 25.3834 9.17473 25.6154 9.40944 25.775C9.64415 25.9346 9.92465 26.013 10.2081 25.9982H15.4074C15.6799 25.9989 15.9457 25.914 16.1673 25.7554C16.3889 25.5968 16.555 25.3725 16.6422 25.1144L17.4351 22.7357C17.5365 22.4348 17.7445 22.1814 18.0199 22.0234C18.2953 21.8653 18.619 21.8135 18.9299 21.8778L21.3736 22.3717C21.6416 22.4274 21.9203 22.3971 22.17 22.285C22.4198 22.173 22.6278 21.985 22.7644 21.7478L25.364 17.2504C25.502 17.013 25.5613 16.7379 25.5333 16.4647C25.5052 16.1915 25.3914 15.9341 25.2081 15.7296L23.4533 13.8579ZM21.5166 15.5996L22.5564 16.7695L20.8926 19.6551L19.3589 19.3431C18.4227 19.1518 17.4489 19.3108 16.6222 19.79C15.7955 20.2692 15.1736 21.0353 14.8745 21.9428L14.3805 23.3986H11.053L10.585 21.9168C10.2859 21.0093 9.66397 20.2432 8.83731 19.764C8.01065 19.2848 7.03682 19.1258 6.10066 19.3171L4.56687 19.6291L2.8771 16.7565L3.91695 15.5866C4.55641 14.8717 4.90993 13.9462 4.90993 12.987C4.90993 12.0278 4.55641 11.1023 3.91695 10.3874L2.8771 9.21751L4.54087 6.3579L6.07466 6.66986C7.01082 6.86122 7.98466 6.7022 8.81131 6.22298C9.63797 5.74376 10.2599 4.9777 10.559 4.07021L11.053 2.60141H14.3805L14.8745 4.08321C15.1736 4.9907 15.7955 5.75676 16.6222 6.23598C17.4489 6.7152 18.4227 6.87422 19.3589 6.68286L20.8926 6.3709L22.5564 9.25651L21.5166 10.4264C20.8843 11.1396 20.5352 12.0598 20.5352 13.013C20.5352 13.9662 20.8843 14.8864 21.5166 15.5996ZM12.7168 7.80071C11.6884 7.80071 10.6832 8.10564 9.82818 8.67695C8.97316 9.24825 8.30676 10.0603 7.91324 11.0103C7.51971 11.9604 7.41675 13.0058 7.61737 14.0143C7.81798 15.0229 8.31317 15.9493 9.0403 16.6765C9.76744 17.4036 10.6939 17.8988 11.7024 18.0994C12.711 18.3 13.7564 18.197 14.7064 17.8035C15.6565 17.41 16.4685 16.7436 17.0398 15.8886C17.6111 15.0336 17.916 14.0283 17.916 13C17.916 11.6211 17.3683 10.2986 16.3932 9.32354C15.4182 8.34849 14.0957 7.80071 12.7168 7.80071ZM12.7168 15.5996C12.2026 15.5996 11.7 15.4472 11.2725 15.1615C10.845 14.8759 10.5118 14.4699 10.315 13.9948C10.1182 13.5198 10.0668 12.9971 10.1671 12.4928C10.2674 11.9886 10.515 11.5253 10.8785 11.1618C11.2421 10.7982 11.7053 10.5506 12.2096 10.4503C12.7139 10.35 13.2366 10.4015 13.7116 10.5982C14.1866 10.795 14.5926 11.1282 14.8783 11.5557C15.1639 11.9832 15.3164 12.4858 15.3164 13C15.3164 13.6895 15.0425 14.3507 14.555 14.8382C14.0675 15.3258 13.4062 15.5996 12.7168 15.5996Z" fill="#696969"/>
</svg>
