<svg width="29" height="26" viewBox="0 0 29 26" fill="none" xmlns="http://www.w3.org/2000/svg">
<path d="M24.7 0H11.7C10.6657 0 9.67368 0.410892 8.94228 1.14228C8.21089 1.87368 7.8 2.86566 7.8 3.9V13C7.8 14.0343 8.21089 15.0263 8.94228 15.7577C9.67368 16.4891 10.6657 16.9 11.7 16.9H24.7C25.7343 16.9 26.7263 16.4891 27.4577 15.7577C28.1891 15.0263 28.6 14.0343 28.6 13V3.9C28.6 2.86566 28.1891 1.87368 27.4577 1.14228C26.7263 0.410892 25.7343 0 24.7 0ZM26 13C26 13.3448 25.863 13.6754 25.6192 13.9192C25.3754 14.163 25.0448 14.3 24.7 14.3H11.7C11.3552 14.3 11.0246 14.163 10.7808 13.9192C10.537 13.6754 10.4 13.3448 10.4 13V3.9C10.4 3.55522 10.537 3.22456 10.7808 2.98076C11.0246 2.73696 11.3552 2.6 11.7 2.6H24.7C25.0448 2.6 25.3754 2.73696 25.6192 2.98076C25.863 3.22456 26 3.55522 26 3.9V13ZM21.45 7.8C20.9687 7.80163 20.5053 7.98237 20.15 8.307C19.8705 8.05292 19.5231 7.8855 19.1502 7.82509C18.7773 7.76469 18.3949 7.81389 18.0495 7.96673C17.704 8.11957 17.4104 8.36946 17.2043 8.68604C16.9981 9.00261 16.8884 9.37224 16.8884 9.75C16.8884 10.1278 16.9981 10.4974 17.2043 10.814C17.4104 11.1305 17.704 11.3804 18.0495 11.5333C18.3949 11.6861 18.7773 11.7353 19.1502 11.6749C19.5231 11.6145 19.8705 11.4471 20.15 11.193C20.3848 11.4064 20.668 11.5592 20.9752 11.6384C21.2825 11.7175 21.6043 11.7204 21.9129 11.647C22.2216 11.5736 22.5076 11.4259 22.7463 11.2169C22.9849 11.0079 23.169 10.7439 23.2825 10.4476C23.396 10.1514 23.4355 9.83195 23.3976 9.51699C23.3597 9.20203 23.2455 8.90107 23.065 8.64022C22.8844 8.37936 22.643 8.1665 22.3615 8.02008C22.0801 7.87367 21.7672 7.79812 21.45 7.8ZM19.5 19.5C19.1552 19.5 18.8246 19.637 18.5808 19.8808C18.337 20.1246 18.2 20.4552 18.2 20.8V22.1C18.2 22.4448 18.063 22.7754 17.8192 23.0192C17.5754 23.263 17.2448 23.4 16.9 23.4H3.9C3.55522 23.4 3.22456 23.263 2.98076 23.0192C2.73696 22.7754 2.6 22.4448 2.6 22.1V16.9H3.9C4.24478 16.9 4.57544 16.763 4.81924 16.5192C5.06304 16.2754 5.2 15.9448 5.2 15.6C5.2 15.2552 5.06304 14.9246 4.81924 14.6808C4.57544 14.437 4.24478 14.3 3.9 14.3H2.6V13C2.6 12.6552 2.73696 12.3246 2.98076 12.0808C3.22456 11.837 3.55522 11.7 3.9 11.7C4.24478 11.7 4.57544 11.563 4.81924 11.3192C5.06304 11.0754 5.2 10.7448 5.2 10.4C5.2 10.0552 5.06304 9.72456 4.81924 9.48076C4.57544 9.23696 4.24478 9.1 3.9 9.1C2.86566 9.1 1.87368 9.51089 1.14228 10.2423C0.410892 10.9737 0 11.9657 0 13V22.1C0 23.1343 0.410892 24.1263 1.14228 24.8577C1.87368 25.5891 2.86566 26 3.9 26H16.9C17.9343 26 18.9263 25.5891 19.6577 24.8577C20.3891 24.1263 20.8 23.1343 20.8 22.1V20.8C20.8 20.4552 20.663 20.1246 20.4192 19.8808C20.1754 19.637 19.8448 19.5 19.5 19.5ZM6.5 20.8H7.8C8.14478 20.8 8.47544 20.663 8.71924 20.4192C8.96304 20.1754 9.1 19.8448 9.1 19.5C9.1 19.1552 8.96304 18.8246 8.71924 18.5808C8.47544 18.337 8.14478 18.2 7.8 18.2H6.5C6.15522 18.2 5.82456 18.337 5.58076 18.5808C5.33696 18.8246 5.2 19.1552 5.2 19.5C5.2 19.8448 5.33696 20.1754 5.58076 20.4192C5.82456 20.663 6.15522 20.8 6.5 20.8Z" fill="#696969"/>
</svg>
